<svg width="46" height="46" viewBox="0 0 46 46" fill="none" xmlns="http://www.w3.org/2000/svg">
<g id="user-circle">
<path id="union-1" fill-rule="evenodd" clip-rule="evenodd" d="M23 7.66665C14.5317 7.66665 7.66671 14.5316 7.66671 23C7.66671 27.0233 9.21549 30.6856 11.753 33.4223C11.8488 33.1053 11.9762 32.794 12.1425 32.4968C12.706 31.4893 13.4168 30.5577 14.2602 29.7339C15.1066 28.9072 16.0616 28.2134 17.0916 27.6653C15.5229 26.1636 14.5421 24.065 14.5421 21.7222C14.5421 17.0928 18.3717 13.4166 23 13.4166C27.6284 13.4166 31.458 17.0928 31.458 21.7222C31.458 24.065 30.4772 26.1636 28.9085 27.6653C29.9385 28.2134 30.8934 28.9072 31.7399 29.7339C32.5833 30.5577 33.2941 31.4893 33.8576 32.4968C34.0238 32.794 34.1513 33.1053 34.2471 33.4223C36.7846 30.6856 38.3334 27.0233 38.3334 23C38.3334 14.5316 31.4684 7.66665 23 7.66665ZM30.5539 36.347C30.6283 35.9642 30.6656 35.6048 30.6667 35.2864C30.6685 34.7603 30.5721 34.4755 30.512 34.368C30.1276 33.6807 29.6413 33.0426 29.0614 32.4763C27.4614 30.9135 25.2819 30.0278 23 30.0278C20.7182 30.0278 18.5387 30.9135 16.9387 32.4763C16.3588 33.0426 15.8725 33.6807 15.4881 34.368C15.4279 34.4755 15.3316 34.7603 15.3334 35.2864C15.3345 35.6048 15.3718 35.9642 15.4462 36.347C17.6746 37.6113 20.2506 38.3333 23 38.3333C25.7495 38.3333 28.3255 37.6113 30.5539 36.347ZM23 26.1944C25.597 26.1944 27.6246 24.1498 27.6246 21.7222C27.6246 19.2946 25.597 17.25 23 17.25C20.4031 17.25 18.3754 19.2946 18.3754 21.7222C18.3754 24.1498 20.4031 26.1944 23 26.1944ZM3.83337 23C3.83337 12.4145 12.4146 3.83331 23 3.83331C33.5855 3.83331 42.1667 12.4145 42.1667 23C42.1667 29.8181 38.6053 35.803 33.2503 39.198C30.2847 41.0782 26.7666 42.1666 23 42.1666C19.2335 42.1666 15.7153 41.0782 12.7497 39.198C7.3948 35.803 3.83337 29.8181 3.83337 23Z" fill="white"/>
</g>
</svg>
